<?xml version="1.0" encoding="UTF-8"?>
<svg width="1024px" height="1024px" viewBox="0 0 1024 1024" version="1.1" xmlns="http://www.w3.org/2000/svg" xmlns:xlink="http://www.w3.org/1999/xlink">
    <!-- Generator: Sketch 60 (88103) - https://sketch.com -->
    <title>系统组件/基础模型/icon_立方体</title>
    <desc>Created with Sketch.</desc>
    <g id="系统组件/基础模型/icon_立方体" stroke="none" stroke-width="1" fill="none" fill-rule="evenodd">
        <g id="Pages" transform="translate(52.000000, 52.000000)" fill="#7F838C" fill-rule="nonzero">
            <path d="M448,-20.7846097 L49.6283143,209.21539 C42.2026884,213.502577 37.6283143,221.425626 37.6283143,230 L37.6283143,690 C37.6283143,698.574374 42.2026884,706.497423 49.6283143,710.78461 L448,940.78461 C455.425626,945.071797 464.574374,945.071797 472,940.78461 L870.371686,710.78461 C877.797312,706.497423 882.371686,698.574374 882.371686,690 L882.371686,230 C882.371686,221.425626 877.797312,213.502577 870.371686,209.21539 L472,-20.7846097 C464.574374,-25.0717968 455.425626,-25.0717968 448,-20.7846097 Z M460,27.712 L834.371,243.856 L834.371,676.143 L460,892.287 L85.628,676.143 L85.628,243.856 L460,27.712 Z" id="多边形"></path>
            <path d="M846.371686,209.21539 L870.371686,250.78461 L472,480.78461 C464.704648,484.996583 455.746104,485.070477 448.392395,481.006292 L448,480.78461 L49.6283143,250.78461 L73.6283143,209.21539 L459.999,432.287 L846.371686,209.21539 Z" id="路径"></path>
            <polygon id="路径" points="484.628314 460 484.628314 920 436.628314 920 436.628314 460"></polygon>
        </g>
    </g>
</svg>