<?xml version="1.0" encoding="UTF-8"?>
<svg width="1024px" height="1024px" viewBox="0 0 1024 1024" version="1.1" xmlns="http://www.w3.org/2000/svg" xmlns:xlink="http://www.w3.org/1999/xlink">
    <!-- Generator: Sketch 60 (88103) - https://sketch.com -->
    <title>系统组件/基础模型/icon_球体</title>
    <desc>Created with Sketch.</desc>
    <g id="系统组件/基础模型/icon_球体" stroke="none" stroke-width="1" fill="none" fill-rule="evenodd">
        <g id="Pages" transform="translate(64.000000, 64.000000)">
            <circle id="椭圆形" stroke="#7F838C" stroke-width="48" cx="448" cy="448" r="448"></circle>
            <path d="M448,-24 C187.321598,-24 -24,187.321598 -24,448 C-24,708.678402 187.321598,920 448,920 C708.678402,920 920,708.678402 920,448 C920,187.321598 708.678402,-24 448,-24 Z M448,24 C682.168734,24 872,213.831266 872,448 C872,682.168734 682.168734,872 448,872 C213.831266,872 24,682.168734 24,448 C24,213.831266 213.831266,24 448,24 Z" id="椭圆形" fill="#7F838C" fill-rule="nonzero"></path>
            <path d="M448,-24 L448,24 C398.538233,24 349.166492,65.7649712 311.074334,141.949288 C271.09738,221.903195 248,331.119876 248,448 C248,564.880124 271.09738,674.096805 311.074334,754.050712 C348.785571,829.473186 397.551927,871.161259 446.516185,871.987478 L448,872 L448,920 C306.511128,920 200,706.977743 200,448 C200,191.612034 304.391557,-19.7349593 443.765899,-23.9362604 L448,-24 Z" id="路径" fill="#7F838C" fill-rule="nonzero"></path>
            <path d="M24,448 C24,497.461767 65.7649712,546.833508 141.949288,584.925666 C221.903195,624.90262 331.119876,648 448,648 C564.880124,648 674.096805,624.90262 754.050712,584.925666 C829.473186,547.214429 871.161259,498.448073 871.987478,449.483815 L872,448 L920,448 C920,589.488872 706.977743,696 448,696 C191.612034,696 -19.7349593,591.608443 -23.9362604,452.234101 L-24,448 L24,448 Z" id="路径" fill="#7F838C" fill-rule="nonzero"></path>
        </g>
    </g>
</svg>