<?xml version="1.0" encoding="UTF-8"?>
<svg width="40px" height="40px" viewBox="0 0 40 40" version="1.1" xmlns="http://www.w3.org/2000/svg" xmlns:xlink="http://www.w3.org/1999/xlink">
    <!-- Generator: Sketch 60 (88103) - https://sketch.com -->
    <title>-mockplus-</title>
    <desc>Created with Sketch.</desc>
    <defs>
        <polygon id="path-1" points="0 0.0387650985 19.3645358 0.0387650985 19.3645358 24.6767378 0 24.6767378"></polygon>
        <polygon id="path-3" points="0.0182245429 0.023914372 19.3961955 0.023914372 19.3961955 24.6484375 0.0182245429 24.6484375"></polygon>
    </defs>
    <g id="后台管理2" stroke="none" stroke-width="1" fill="none" fill-rule="evenodd">
        <g id="乐吾乐物联系统（颜色修改）" transform="translate(-8.000000, -12.000000)">
            <g id="菜单">
                <g id="菜单头（logo）" transform="translate(8.000000, 12.000000)">
                    <g id="-mockplus-">
                        <g id="icon_logo_blue">
                            <g id="Pages" transform="translate(1.289062, 3.398438)">
                                <path d="M16.28904,16.640625 C16.28904,15.3137033 17.3645521,14.2382587 18.6914063,14.2382587 C20.0182604,14.2382587 21.0937725,15.3137033 21.0937725,16.640625 C21.0937725,17.9675467 20.0182604,19.0429913 18.6914063,19.0429913 C17.3645521,19.0429913 16.28904,17.9675467 16.28904,16.640625 M25.8984375,16.640625 C25.8984375,12.6599274 22.6721038,9.43359375 18.6914063,9.43359375 C14.7107087,9.43359375 11.484375,12.6599274 11.484375,16.640625 C11.484375,20.6213226 14.7107087,23.8476563 18.6914063,23.8476563 C22.6721038,23.8476563 25.8984375,20.6213226 25.8984375,16.640625" id="Fill-1" fill="#1890FF"></path>
                                <g id="编组" transform="translate(0.000000, 0.019531)">
                                    <mask id="mask-2" fill="white">
                                        <use xlink:href="#path-1"></use>
                                    </mask>
                                    <g id="Clip-4"></g>
                                    <path d="M18.6888565,2.35739371 C18.68798,2.35658512 18.6864294,2.35503533 18.6856203,2.35422674 C18.6736197,2.34223267 18.6616864,2.33104719 18.6496183,2.31986171 L16.6847413,0.356068851 L16.6504247,0.320086646 C16.638424,0.308092578 16.6264233,0.296907098 16.6143552,0.285721619 C16.4320526,0.121039017 16.2017472,0.0387650985 15.9713744,0.0387650985 C15.725967,0.0387650985 15.4804248,0.132291879 15.2933354,0.320086646 L2.40048183,13.205759 L2.39967279,13.205759 L0.736296264,14.8682178 C0.734678193,14.8682178 0.733869158,14.8698349 0.732318507,14.8722607 C0.722744923,14.8810204 0.712294884,14.8905887 0.7027213,14.9002244 C0.693080296,14.9097927 0.683506712,14.9201696 0.674742163,14.9298053 C0.672382477,14.9305465 0.671506022,14.9321637 0.671506022,14.9329723 C0.66671923,14.9369478 0.662741473,14.9409908 0.660314367,14.9449663 C-0.234546069,15.8840749 -0.219376657,17.3699244 0.7027213,18.2906376 L0.703462915,18.2922548 L2.39967279,19.9875287 L6.79563339,24.3802552 C6.80042018,24.3858479 6.80520698,24.3914407 6.8108028,24.3962248 C6.81646605,24.401009 6.82125284,24.4066691 6.82684867,24.4113859 C7.01238743,24.5880625 7.25071574,24.6767378 7.48985308,24.6767378 C7.73451883,24.6767378 7.98080265,24.5832784 8.16795948,24.3962248 L10.882138,21.6835439 L10.2383482,21.0409179 L10.2215607,21.0233311 L10.2084813,21.0102589 C10.2067284,21.0085069 10.20538,21.0066202 10.2036945,21.0049357 C10.2019416,21.0031837 10.1999864,21.0017687 10.1982335,21.0000841 L10.1864351,20.9881575 C10.1808393,20.9826321 10.174367,20.9761634 10.1679621,20.9705706 L6.80797118,17.612501 L6.81161184,17.6145225 C6.25263588,17.0557876 6.24939974,16.151044 6.80284729,15.5884009 L6.79913921,15.5904224 L18.6801594,3.71602517 C18.6819797,3.71420585 18.6840023,3.71272344 18.6858226,3.71090411 C18.6875755,3.70915217 18.6890587,3.7071307 18.6908791,3.70531137 L19.3645358,3.03276757 L18.6888565,2.35739371 Z" id="Fill-3" fill="#1890FF" mask="url(#mask-2)"></path>
                                </g>
                                <g id="编组" transform="translate(18.046875, 8.535156)">
                                    <mask id="mask-4" fill="white">
                                        <use xlink:href="#path-3"></use>
                                    </mask>
                                    <g id="Clip-6"></g>
                                    <path d="M18.6930151,6.40651278 L18.6922055,6.40489648 L16.9948898,4.71061946 L12.5958885,0.320301731 C12.5910984,0.314712058 12.5862408,0.309122385 12.5806411,0.304273512 C12.5750414,0.299491985 12.5702513,0.293902312 12.5646516,0.289120784 C12.3789845,0.11260834 12.1405588,0.023914372 11.9011886,0.023914372 C11.6563536,0.023914372 11.4098994,0.117389867 11.2225457,0.304273512 L8.50655719,3.01553429 L9.15079233,3.65774058 L9.18513265,3.69370305 C9.19714164,3.70569054 9.20921809,3.71686989 9.22115962,3.72804923 L12.5941344,7.09491804 L12.579899,7.08232444 C13.1392616,7.64068563 13.1425,8.54500044 12.5886696,9.10733501 L12.6030399,9.09460672 L0.703141827,20.9732006 C0.701320238,20.9749516 0.699296251,20.9764332 0.697474663,20.9782515 C0.695653074,20.9800698 0.694236283,20.9820228 0.692347228,20.9838412 L0.0182245429,21.6560835 L0.694438682,22.331087 C0.695248277,22.3318278 0.696867467,22.3334441 0.697677061,22.3342523 C0.703276759,22.3398419 0.709686052,22.3462398 0.716095345,22.3518294 L2.72071978,24.352865 C2.72463282,24.3576465 2.72949039,24.3624954 2.73428049,24.3672769 C2.7390706,24.3720585 2.74392817,24.37684 2.74871827,24.3808134 C2.93438537,24.5597503 3.17443025,24.6484442 3.41373301,24.6484442 C3.6593776,24.6484442 3.90508965,24.5549687 4.09230847,24.3672769 L18.7354514,9.75041678 C19.6308634,8.8117558 19.6157509,7.32678845 18.6930151,6.40651278" id="Fill-5" fill="#1890FF" mask="url(#mask-4)"></path>
                                </g>
                            </g>
                        </g>
                    </g>
                </g>
            </g>
        </g>
    </g>
</svg>